<svg xmlns="http://www.w3.org/2000/svg" fill="none" viewBox="0 0 1600 1000">
  <g clip-path="url(#a)">
    <path fill="#000" d="M628.571 632.104c26.455 1.994 67.725 1.994 114.286 1.994 80.423 0 180.953-2.991 240.212-7.976 1.058 16.949 1.058 33.898 1.058 48.853 0 122.632-64.55 179.462-316.402 194.417 2.116 49.85 5.291 88.734 10.582 130.608-63.492-.997-122.751-.997-184.127-.997-64.55 0-122.751 0-186.243.997 5.291-41.874 8.465-81.755 10.582-132.602C93.1217 848.455 0 781.655 0 645.065c0-143.569 59.2593-212.363 386.243-234.297 164.022-11.964 184.127-34.896 184.127-72.782 0-29.91-19.047-45.862-101.587-45.862s-106.878 17.946-106.878 60.817v14.955c-24.339-.997-57.143-1.994-93.122-1.994-93.122 0-190.4761 5.982-261.37559 9.97-3.17461-20.937-4.23281-39.88-4.23281-57.826 0-119.641 66.6667-176.471 313.2274-192.423-1.058-46.8593-4.233-84.7456-9.524-125.623h371.429c-5.291 40.8774-8.466 78.7637-9.524 125.623C920.635 144.566 1000 212.363 1000 345.962c0 164.507-80.423 220.339-372.487 243.27-185.185 14.955-203.174 37.887-203.174 74.776 0 25.922 20.105 41.874 97.354 41.874 85.714 0 106.878-15.952 106.878-55.832v-17.946Z"/>
    <path fill="#2B7FFF" d="M1289.98 506.019c100.19 15.046 233.46 36.111 310.02 52.16 0 42.13-4.73 178.549-2.84 266.821-130.43-59.182-369.56-176.543-497.16-230.71 1.89-25.077 2.84-57.176 2.84-94.29 0-37.114-.95-70.216-2.84-95.293 126.65-53.164 366.73-170.525 497.16-229.707-2.83 95.293 2.84 223.688 2.84 269.83-76.56 16.05-209.83 37.114-310.02 52.161v9.028Z"/>
  </g>
  <defs>
    <clipPath id="a">
      <path fill="#fff" d="M0 0h1600v1000H0z"/>
    </clipPath>
  </defs>
</svg>
